<svg width="124" height="286" viewBox="0 0 124 286" fill="none" xmlns="http://www.w3.org/2000/svg">
<path d="M110.068 50.1322C110.594 47.7823 110.359 45.3261 109.399 43.118C106.654 36.6738 99.1462 20.7138 91.9234 20.2137C82.8662 19.5867 85.7234 27.5629 88.9377 29.4677C90.7314 30.5967 93.025 30.5499 94.7711 29.3487C94.7711 29.3487 103.446 39.8895 102.509 43.1583C102.509 43.1583 97.5092 43.1583 99.1759 47.9203C100.634 52.087 108.199 58.1678 110.068 50.1322Z" fill="#DC911B"/>
<path d="M92.9281 117.935C92.9281 117.935 116.24 198.382 84.6369 225.166C53.0336 251.951 19.285 264.272 19.285 264.272L16.0708 276.593L0 237.487L44.9982 186.061L64.2806 107.314" fill="#E2E2E2"/>
<path d="M61.4636 160.348C57.4343 160.348 53.5828 162.162 50.042 165.463L44.9982 186.061L34.0746 198.545C31.4811 209.487 29.9988 222.133 29.9988 235.609C29.988 243.432 30.5064 251.246 31.5505 258.998C44.2084 253.044 64.8429 241.943 84.637 225.167C87.4864 222.726 89.9439 219.861 91.9234 216.674C88.413 184.274 76.1068 160.348 61.4636 160.348Z" fill="black"/>
<path d="M83.3979 105.873C83.3979 105.873 90.6076 223.548 70.2445 279.263L74.498 285.512H38.2798C38.2798 285.512 34.3231 135.837 34.3231 103.531L83.3979 105.873Z" fill="#EDEEEF"/>
<path d="M74.9823 14.8271V30.1198L56.0374 34.7763V8.96849L74.9823 4.31201V14.8271Z" fill="#EDEEEF"/>
<path d="M64.2806 20.1176C64.5604 20.1176 64.7872 19.8908 64.7872 19.611C64.7872 19.3313 64.5604 19.1045 64.2806 19.1045C64.0009 19.1045 63.7741 19.3313 63.7741 19.611C63.7741 19.8908 64.0009 20.1176 64.2806 20.1176Z" fill="black"/>
<path d="M72.0607 20.1176C72.3405 20.1176 72.5673 19.8908 72.5673 19.611C72.5673 19.3313 72.3405 19.1045 72.0607 19.1045C71.781 19.1045 71.5542 19.3313 71.5542 19.611C71.5542 19.8908 71.781 20.1176 72.0607 20.1176Z" fill="black"/>
<path d="M69.7783 22.6328V14.8267H73.689" stroke="black" stroke-width="1.5" stroke-linecap="round" stroke-linejoin="round"/>
<path d="M63.3264 14.8265H67.237" stroke="black" stroke-width="1.5" stroke-linecap="round" stroke-linejoin="round"/>
<path d="M57.2852 18.8265V21.5374C55.8229 21.5374 54.6375 20.352 54.6375 18.8897C54.6375 18.8084 54.6411 18.7281 54.6483 18.6487C54.7967 17.0045 57.2852 17.1757 57.2852 18.8265Z" fill="#EDEEEF"/>
<path d="M57.2852 21.5374C55.8229 21.5374 54.6375 20.3519 54.6375 18.8896" stroke="black" stroke-width="1.5" stroke-linecap="round" stroke-linejoin="round"/>
<path d="M68.0678 24.5573C66.5878 24.5573 65.388 23.3575 65.388 21.8774" stroke="#DC911B" stroke-width="1.5" stroke-linecap="round" stroke-linejoin="round"/>
<path d="M74.9824 30.1196L56.0375 34.776" stroke="black" stroke-width="1.5" stroke-linecap="round" stroke-linejoin="round"/>
<path d="M69.7783 22.6392L68.0679 23.0596" stroke="black" stroke-width="1.5" stroke-linecap="round" stroke-linejoin="round"/>
<path d="M34.323 62.1614V103.531L92.9281 117.935V71.8607C92.9281 55.5236 81.7749 41.2972 65.91 37.3979H65.9099C58.3016 35.5279 50.256 37.2591 44.0903 42.093C37.9245 46.9268 34.323 54.3266 34.323 62.1614V62.1614Z" fill="#DC911B"/>
<path d="M83.3979 105.873C83.3979 105.873 90.6076 223.548 70.2444 279.263" stroke="black" stroke-width="1.5" stroke-linecap="round" stroke-linejoin="round"/>
<path d="M58.3952 16.7589C58.3952 16.7589 61.6076 16.5803 69.7783 10.5981V12.9195C69.7783 12.9195 74.4668 11.5802 75.8061 9.25879" stroke="black" stroke-width="1.5" stroke-linecap="round" stroke-linejoin="round"/>
<path d="M76.2335 8.35005C76.2335 8.35005 86.3419 -5.02688 58.3951 4.31198L61.4309 1C61.4309 1 46.52 5.82715 55.2701 17.4985" stroke="black" stroke-width="1.5" stroke-linecap="round" stroke-linejoin="round"/>
<path d="M74.7049 18.3365C74.7049 18.3365 78.4033 13.3685 76.9186 7.28857" stroke="black" stroke-width="1.5" stroke-linecap="round" stroke-linejoin="round"/>
<path d="M39.8189 46.3398C39.8189 46.3398 3.34168 75.7774 9.05603 113.278C14.7704 150.778 52.5179 153.278 52.5179 153.278L58.3953 142.921L34.3232 103.531L57.2854 80.0631" stroke="black" stroke-width="1.5" stroke-linecap="round" stroke-linejoin="round"/>
<path d="M52.5178 153.279L64.5764 132.028" stroke="black" stroke-width="1.5" stroke-linecap="round" stroke-linejoin="round"/>
<path d="M82.0999 46.3398C82.0999 46.3398 94.295 59.1105 100.247 73.3964" stroke="black" stroke-width="1.5" stroke-linecap="round" stroke-linejoin="round"/>
<path d="M91.9234 102.683C91.9234 102.683 96.4378 112.207 108.819 115.302C121.114 118.376 134.113 63.4565 106.548 28.184C105.958 27.4139 105.132 26.859 104.195 26.6047C102.494 26.1637 100.303 26.7891 101.209 33.6344C101.209 33.6344 97.3902 32.2824 99.295 36.6489C101.2 41.0154 104.738 57.9547 98.0881 68.771" stroke="black" stroke-width="1.5" stroke-linecap="round" stroke-linejoin="round"/>
</svg>
