<svg width="100%" height="100%" viewBox="0 0 1939 1688" fill="none" xmlns="http://www.w3.org/2000/svg">
<path d="M1569.5 1430.52C1693.02 1430.52 1942.11 1546.67 1937.5 1687.34" stroke="black" stroke-width="1.5"/>
<path d="M371.5 1065.8H496.683" stroke="black" stroke-width="1.5"/>
<path d="M554.401 1065.8H759.744" stroke="black" stroke-width="1.5"/>
<path d="M371.5 251.075H631.446" stroke="black" stroke-width="1.5"/>
<path d="M627.554 251.075H711.887" stroke="black" stroke-width="1.5"/>
<path d="M711.5 250.845C850.99 257.342 1134.36 314.922 1151.92 493.26C1169.47 671.599 1256.66 654.075 1320.5 654.574" stroke="black" stroke-width="1.5"/>
<path d="M1581.89 655.845C1613.91 685.605 1674.44 775.65 1660.43 897.75C1642.92 1050.38 1471.84 1133.17 1314.77 1137.66C1189.11 1141.25 892.23 1091.28 759.5 1065.84" stroke="black" stroke-width="1.5"/>
<path d="M376 1066C326.5 1073.83 145 1066 145 1283.5C145 1402 831.437 1745.55 1042.5 1604.34C1254 1462.84 1243.5 1430.84 1345.5 1430.84" stroke="black" stroke-width="1.5"/>
<path d="M372.5 251.08C279.5 251.08 83.4 223.4 1 1" stroke="black" stroke-width="1.5"/>
<path d="M1320.5 654.845L1582.5 655.83" stroke="black" stroke-width="1.5"/>
<path d="M496.5 1065.84H554.5" stroke="black" stroke-width="1.5"/>
<path d="M1345.5 1430.84H1569.5" stroke="black" stroke-width="1.5"/>
</svg>
