<svg width="370" height="322" viewBox="0 0 370 322" fill="none" xmlns="http://www.w3.org/2000/svg">
<path d="M355.461 31.7538C325.698 31.7538 300.228 19.0273 289.755 1.00008C279.283 19.0273 253.813 31.7538 224.05 31.7538C219.765 31.7553 215.484 31.4867 211.232 30.9498V129.357C211.232 152.638 223.652 174.149 243.813 185.789L289.755 212.314L335.698 185.789C355.859 174.149 368.279 152.638 368.279 129.357V30.9498C364.027 31.4867 359.746 31.7553 355.461 31.7538Z" fill="#EDEEEF"/>
<path d="M335.698 185.789C355.859 174.149 368.279 152.638 368.279 129.357V30.9498C364.027 31.4867 359.746 31.7552 355.461 31.7538C325.698 31.7538 300.228 19.0273 289.756 1V212.314L335.698 185.789Z" fill="#D6D6D6"/>
<path d="M289.756 212.314L335.698 185.789C355.859 174.149 368.279 152.637 368.279 129.357V30.9497C364.027 31.4867 359.746 31.7552 355.461 31.7538C325.698 31.7538 300.228 19.0273 289.756 1" stroke="black" stroke-width="1.5"/>
<path d="M225.32 303.828H201.548V293.77H177.259V281.883L159.172 265.881H131.782V219.706H96.1229V162.558L51.1622 202.333V278.225H27.3899V311.843H17.5707V302.456H0V321.23H237.207V314.343L225.32 303.828V303.828Z" fill="#F4F4F4"/>
<rect x="98.8722" y="231.274" width="3.24777" height="2.87314" fill="white"/>
<rect x="106.775" y="231.274" width="3.24777" height="2.87314" fill="white"/>
<rect x="114.678" y="231.274" width="3.24774" height="2.87314" fill="white"/>
<rect x="98.8722" y="239.021" width="3.24777" height="2.87323" fill="white"/>
<rect x="106.775" y="239.021" width="3.24777" height="2.87323" fill="white"/>
<rect x="114.678" y="239.021" width="3.24774" height="2.87323" fill="white"/>
<rect x="98.8722" y="246.768" width="3.24777" height="2.87314" fill="white"/>
<rect x="106.775" y="246.768" width="3.24777" height="2.87314" fill="white"/>
<rect x="114.678" y="246.768" width="3.24774" height="2.87314" fill="white"/>
<rect x="98.8722" y="254.514" width="3.24777" height="2.87311" fill="white"/>
<rect x="106.775" y="254.514" width="3.24777" height="2.87311" fill="white"/>
<rect x="114.678" y="254.514" width="3.24774" height="2.87311" fill="white"/>
<rect x="98.8722" y="262.261" width="3.24777" height="2.87317" fill="white"/>
<rect x="106.775" y="262.261" width="3.24777" height="2.87317" fill="white"/>
<rect x="114.678" y="262.261" width="3.24774" height="2.87317" fill="white"/>
<rect x="98.8722" y="270.008" width="3.24777" height="2.8732" fill="white"/>
<rect x="106.775" y="270.008" width="3.24777" height="2.8732" fill="white"/>
<rect x="114.678" y="270.008" width="3.24774" height="2.8732" fill="white"/>
<rect x="98.8722" y="277.754" width="3.24777" height="2.8732" fill="white"/>
<rect x="106.775" y="277.754" width="3.24777" height="2.8732" fill="white"/>
<rect x="114.678" y="277.754" width="3.24774" height="2.8732" fill="white"/>
<rect x="98.8722" y="285.501" width="3.24777" height="2.87314" fill="white"/>
<rect x="106.775" y="285.501" width="3.24777" height="2.87314" fill="white"/>
<rect x="114.678" y="285.501" width="3.24774" height="2.87314" fill="white"/>
<path d="M168.68 131.358L138.413 126.654C138.413 126.654 116.109 233.064 128.079 312.45L124.548 320.28H164.651L176.037 199.191L168.68 131.358Z" fill="#E2E2E2"/>
<path d="M148.553 129.146C148.553 129.146 140.882 254.351 162.548 313.631L158.022 320.28H196.558C196.558 320.28 200.768 161.027 200.768 126.654L148.553 129.146Z" fill="#EDEEEF"/>
<path d="M148.553 129.146C148.553 129.146 140.882 254.351 162.548 313.631L158.022 320.28" stroke="black" stroke-width="1.5"/>
<path d="M176.037 32.2738V48.5454L155.88 53.4997V26.0404L176.037 21.0862V32.2738V32.2738Z" fill="#EDEEEF"/>
<path d="M164.651 37.9034C164.948 37.9034 165.19 37.6621 165.19 37.3645C165.19 37.0668 164.948 36.8255 164.651 36.8255C164.353 36.8255 164.112 37.0668 164.112 37.3645C164.112 37.6621 164.353 37.9034 164.651 37.9034Z" fill="black"/>
<path d="M172.929 37.9034C173.226 37.9034 173.468 37.6621 173.468 37.3645C173.468 37.0668 173.226 36.8255 172.929 36.8255C172.631 36.8255 172.39 37.0668 172.39 37.3645C172.39 37.6621 172.631 37.9034 172.929 37.9034Z" fill="black"/>
<path d="M170.5 40.5797V32.2738H174.661" stroke="black" stroke-width="1.5"/>
<path d="M163.635 32.2738H167.796" stroke="black" stroke-width="1.5"/>
<path d="M157.208 36.5295V39.4138C155.652 39.4138 154.391 38.1526 154.391 36.5967C154.391 36.5102 154.395 36.4248 154.402 36.3403C154.56 34.5909 157.208 34.773 157.208 36.5295Z" fill="#EDEEEF"/>
<path d="M157.208 39.4139C155.652 39.4139 154.391 38.1526 154.391 36.5967" stroke="black" stroke-width="1.5"/>
<path d="M168.68 42.6271C167.105 42.6271 165.829 41.3505 165.829 39.7758" stroke="#DC911B" stroke-width="1.5" stroke-linecap="round" stroke-linejoin="round"/>
<path d="M176.037 48.5452L155.88 53.4995" stroke="black" stroke-width="1.5"/>
<path d="M170.5 40.5861L168.68 41.0335" stroke="black" stroke-width="1.5" stroke-linecap="round"/>
<path d="M138.413 82.6374V126.654L200.768 141.98V92.9574C200.768 75.5749 188.901 60.4381 172.021 56.2893H172.021C163.925 54.2997 155.365 56.1417 148.805 61.2848C142.244 66.4279 138.412 74.3013 138.412 82.6373L138.413 82.6374Z" fill="#DC911B"/>
<path d="M176.037 30.9138C176.037 30.228 183.479 18.068 165.19 17.8147C146.901 17.5614 155.799 35.1165 155.799 35.1165" stroke="black" stroke-width="1.5"/>
<path d="M157.208 33.0464C157.208 33.0464 159.884 29.0564 160.074 27.4414C160.074 27.4414 173.158 27.6314 175.309 24.5914" stroke="black" stroke-width="1.5"/>
<path d="M154.577 68.6474L145.634 115.222L148.927 123.835L157.208 116.742L156.654 68.9879L159.567 64.8079H152.6L154.577 68.6474V68.6474Z" fill="black"/>
<path d="M188.175 64.808C188.175 64.808 261.914 136.501 182.494 181.721L174.001 168.421L191.234 123.835L174.661 100.781" stroke="black" stroke-width="1.5"/>
<path d="M182.494 181.721L165.994 155.881" stroke="black" stroke-width="1.5"/>
<path d="M143.249 67.1596C143.249 67.1596 107.059 123.282 131.793 165.865" stroke="black" stroke-width="1.5"/>
<path d="M257.493 111.048L262.195 106.346L286.185 130.336L281.483 135.039L257.493 111.048Z" fill="#DC911B"/>
<path d="M328.842 78.2756L333.544 82.9779L281.483 135.039L276.781 130.336L328.842 78.2756Z" fill="#DC911B"/>
<path d="M57.7514 2.79373C46.7358 2.77416 37.79 11.6882 37.7704 22.7038L77.6616 22.7748C77.6812 11.7592 68.7671 2.81333 57.7514 2.79373Z" fill="#EDEEEF"/>
<path d="M99.3021 11.4418C93.0218 11.4306 87.9215 16.5128 87.9103 22.7931L110.653 22.8336C110.659 19.8176 109.466 16.9231 107.337 14.7867C105.208 12.6503 102.318 11.4471 99.3021 11.4418V11.4418Z" fill="#EDEEEF"/>
<path d="M77.6986 1.91742C66.1793 1.89696 56.8246 11.2185 56.8041 22.7377L98.5189 22.812C98.5394 11.2927 89.2178 1.93791 77.6986 1.91742Z" fill="#EDEEEF"/>
<path d="M34.1052 22.6974L116.095 22.8432" stroke="black" stroke-width="1.5"/>
<path d="M98.2262 46.5035C107.357 46.4873 114.772 53.876 114.788 63.0066L81.7232 63.0654C81.7069 53.9348 89.0956 46.5198 98.2262 46.5035V46.5035Z" fill="#EDEEEF"/>
<path d="M63.7858 53.6716C68.9914 53.6624 73.2189 57.8748 73.2282 63.0805L54.377 63.114C54.3725 60.6142 55.3613 58.215 57.1258 56.4442C58.8903 54.6734 61.286 53.6761 63.7858 53.6716Z" fill="#EDEEEF"/>
<path d="M81.6924 45.7771C91.2405 45.7601 98.9945 53.4866 99.0114 63.0346L64.435 63.0961C64.418 53.5481 72.1444 45.7941 81.6924 45.7771V45.7771Z" fill="#EDEEEF"/>
<path d="M117.826 63.0011L49.8668 63.122" stroke="black" stroke-width="1.5"/>
<path d="M312.557 238.369C309.895 235.923 307.868 232.865 306.653 229.46C303.635 221.122 295.718 215.568 286.851 215.568C277.984 215.568 270.067 221.122 267.049 229.46C265.834 232.865 263.808 235.923 261.145 238.369C254.21 244.694 252.297 254.845 256.456 263.26C260.615 271.675 269.84 276.321 279.077 274.653C284.218 273.725 289.484 273.725 294.625 274.653C303.865 276.33 313.098 271.685 317.259 263.266C321.419 254.847 319.501 244.691 312.557 238.369H312.557Z" fill="#DC911B"/>
<path d="M279.077 274.653C284.218 273.725 289.484 273.725 294.625 274.653C300.766 275.762 307.082 274.091 311.872 270.092C316.662 266.093 319.433 260.176 319.438 253.937" stroke="black" stroke-width="1.5"/>
<path d="M286.851 260.045V321.23" stroke="black" stroke-width="1.5"/>
<path d="M295.783 251.113L286.851 260.045L277.92 251.113" stroke="black" stroke-width="1.5"/>
<path d="M251.579 274.902C250.091 273.534 248.958 271.825 248.278 269.921C246.591 265.259 242.164 262.154 237.207 262.154C232.249 262.154 227.823 265.259 226.136 269.921C225.456 271.825 224.323 273.534 222.834 274.902C218.957 278.438 217.888 284.114 220.213 288.819C222.538 293.523 227.696 296.121 232.86 295.189C235.735 294.67 238.679 294.67 241.553 295.189C246.719 296.126 251.882 293.529 254.208 288.822C256.534 284.115 255.462 278.437 251.579 274.902V274.902Z" fill="#DC911B"/>
<path d="M232.86 295.188C235.735 294.669 238.679 294.669 241.553 295.188C244.987 295.808 248.518 294.875 251.196 292.639C253.874 290.403 255.424 287.095 255.427 283.606" stroke="black" stroke-width="1.5"/>
<path d="M237.207 287.021V321.23" stroke="black" stroke-width="1.5"/>
<path d="M242.201 282.027L237.207 287.021L232.213 282.027" stroke="black" stroke-width="1.5"/>
</svg>
