<svg width="340" height="300" viewBox="0 0 340 300" fill="none" xmlns="http://www.w3.org/2000/svg">
<path d="M204.445 164.028C244.626 164.028 277.199 131.455 277.199 91.2743C277.199 51.0936 244.626 18.5207 204.445 18.5207C164.264 18.5207 131.691 51.0936 131.691 91.2743C131.691 131.455 164.264 164.028 204.445 164.028Z" fill="#EDEEEF"/>
<path fill-rule="evenodd" clip-rule="evenodd" d="M204.445 164.028C244.626 164.028 277.199 131.455 277.199 91.2743C277.199 51.0936 244.626 18.5207 204.445 18.5207C164.264 18.5207 131.691 51.0936 131.691 91.2743C131.691 131.455 164.264 164.028 204.445 164.028Z" stroke="black" stroke-width="1.5"/>
<rect x="177.997" y="0.155273" width="52.8956" height="182.238" fill="#EDEEEF"/>
<path d="M112.309 68.6193L138.757 22.8104L296.58 113.93L270.132 159.738L112.309 68.6193Z" fill="#EDEEEF"/>
<path d="M138.757 159.738L112.309 113.929L270.132 22.8103L296.58 68.6192L138.757 159.738Z" fill="#EDEEEF"/>
<path d="M204.445 109.463C214.49 109.463 222.633 101.32 222.633 91.2745C222.633 81.2293 214.49 73.0861 204.445 73.0861C194.4 73.0861 186.256 81.2293 186.256 91.2745C186.256 101.32 194.4 109.463 204.445 109.463Z" fill="#DC911B"/>
<path d="M186.257 91.2745C186.257 81.2293 194.4 73.0861 204.445 73.0861" stroke="black" stroke-width="1.5"/>
<path d="M146.202 294.931C139.933 229.384 101.005 132.402 101.005 132.402L66.9756 111.4L70.7369 163.837L75.8078 213.89L118.844 310.703L158.172 298.351L146.202 294.931Z" fill="#E2E2E2"/>
<path d="M90.8642 119.569C90.8642 119.569 98.5353 244.774 76.8691 304.054L81.3948 310.703H42.8591C42.8591 310.703 38.6492 151.449 38.6492 117.076L90.8642 119.569Z" fill="#EDEEEF"/>
<path d="M77.1836 22.6963V38.9679L57.0266 43.9221V16.4629L77.1836 11.5086V22.6963Z" fill="#EDEEEF"/>
<path d="M65.797 28.3259C66.0947 28.3259 66.336 28.0846 66.336 27.7869C66.336 27.4892 66.0947 27.2479 65.797 27.2479C65.4994 27.2479 65.2581 27.4892 65.2581 27.7869C65.2581 28.0846 65.4994 28.3259 65.797 28.3259Z" fill="black"/>
<path d="M74.0755 28.3259C74.3731 28.3259 74.6144 28.0846 74.6144 27.7869C74.6144 27.4892 74.3731 27.2479 74.0755 27.2479C73.7778 27.2479 73.5365 27.4892 73.5365 27.7869C73.5365 28.0846 73.7778 28.3259 74.0755 28.3259Z" fill="black"/>
<path d="M71.6464 31.0021V22.6963H75.8074" stroke="black" stroke-width="1.5"/>
<path d="M64.7821 22.6963H68.9431" stroke="black" stroke-width="1.5"/>
<path d="M58.3541 26.9519V29.8363C56.7982 29.8363 55.5369 28.575 55.5369 27.0191C55.5369 26.9327 55.5408 26.8472 55.5484 26.7627C55.7063 25.0133 58.3541 25.1955 58.3541 26.9519Z" fill="#EDEEEF"/>
<path d="M58.3541 29.8363C56.7982 29.8363 55.5369 28.575 55.5369 27.0192" stroke="black" stroke-width="1.5"/>
<path d="M69.8269 33.0496C68.2522 33.0496 66.9756 31.773 66.9756 30.1983" stroke="#FF6498" stroke-width="1.5" stroke-linecap="round" stroke-linejoin="round"/>
<path d="M77.1837 38.9678L57.0265 43.922" stroke="black" stroke-width="1.5"/>
<path d="M71.6468 31.0087L69.8269 31.4559" stroke="black" stroke-width="1.5" stroke-linecap="round"/>
<path d="M77.8683 15.6334C77.8683 15.6334 72.8485 19.3701 62.8418 18.2301C62.8418 18.2301 62.8418 24.8281 59.2952 26.8491" stroke="black" stroke-width="1.5"/>
<path d="M77.8683 24.1201C77.8683 24.1201 86.0431 13.4801 74.2208 10.5035C62.3985 7.5268 56.9518 13.3535 56.9518 13.3535C56.9518 13.3535 45.7685 15.1901 57.6302 35.6468" stroke="black" stroke-width="1.5"/>
<path d="M38.6492 73.0598V117.076L101.004 132.402V83.3798C101.004 65.9973 89.1374 50.8606 72.2573 46.7118H72.2573C64.1621 44.7221 55.6017 46.5641 49.0414 51.7073C42.4811 56.8504 38.6492 64.7238 38.6492 73.0598L38.6492 73.0598Z" fill="#DC911B"/>
<path d="M90.8641 119.569C90.8641 119.569 98.5352 244.773 76.869 304.053" stroke="black" stroke-width="1.5"/>
<path d="M45.1951 55.3801C45.1951 55.3801 11.2231 100.452 25.1852 127.037C39.1474 153.622 106.505 113.61 107.265 106.517C108.025 99.4236 92.1828 103.224 92.1828 103.224C92.1828 103.224 94.0919 90.3036 85.9852 102.97L55.5373 106.264L65.4161 82.4502" stroke="black" stroke-width="1.5"/>
<path d="M58.8507 98.2756L55.537 106.264L78.3616 103.795C73.0564 101.014 66.3317 99.053 58.8507 98.2756Z" fill="black"/>
<path d="M38.838 135.767C38.8898 139.169 38.951 142.837 39.0204 146.729C55.1062 146.597 76.0226 137.898 85.4636 128.582L85.4677 128.583C85.588 128.465 85.7029 128.346 85.8195 128.227C85.8505 128.195 85.8824 128.164 85.9132 128.132C86.0719 127.968 86.226 127.805 86.3775 127.641C86.4049 127.612 86.433 127.582 86.4601 127.553C86.6126 127.386 86.7603 127.22 86.9051 127.054C86.9285 127.027 86.9526 127 86.9758 126.973C87.1218 126.804 87.2627 126.634 87.4005 126.465C87.42 126.441 87.4402 126.417 87.4594 126.393C87.5992 126.22 87.7343 126.047 87.8647 125.874C87.8795 125.854 87.895 125.834 87.9097 125.815C88.0426 125.637 88.1706 125.46 88.2937 125.283C88.3045 125.267 88.316 125.252 88.3268 125.236C88.4519 125.055 88.5718 124.875 88.6864 124.695C88.6941 124.683 88.7022 124.67 88.7099 124.658C88.8267 124.474 88.9379 124.29 89.0436 124.106L89.0575 124.082C89.1648 123.895 89.2663 123.709 89.3619 123.522L89.3697 123.507C89.4668 123.317 89.5577 123.128 89.6425 122.939L89.645 122.934C90.0881 121.983 90.3632 120.962 90.4583 119.917C75.4572 128.657 53.6394 137.765 38.838 135.767Z" fill="black"/>
<path d="M82.8686 103.307L83.3713 101.77C84.5889 98.0469 87.7722 95.3071 91.6352 94.6576L112.555 91.1402C115.936 90.5719 119.276 92.3434 120.702 95.4603V95.4603C120.771 95.6105 120.931 95.6972 121.094 95.6728L164.772 89.1584L165.323 87.2864C165.553 86.5074 166.315 86.0113 167.12 86.1169L175.962 87.2765C176.734 87.3778 177.312 88.036 177.312 88.8149V89.8802C177.312 90.5177 176.922 91.0904 176.329 91.324L168.877 94.258C167.867 94.6556 166.716 94.3488 166.038 93.5014L165.152 92.3935L121.441 99.9625C121.328 99.9821 121.23 100.053 121.176 100.154L121.012 100.463C118.169 105.808 113.041 109.563 107.088 110.66L103.069 111.4" stroke="black" stroke-width="1.5"/>
<path d="M80.6216 49.8531C80.6216 49.8531 98.4618 57.4335 124.682 94.6311" stroke="black" stroke-width="1.5"/>
<path d="M101.004 120.957C101.004 120.957 131.331 131.597 139.691 123.744C148.052 115.89 150.585 94.6311 150.585 94.6311" stroke="black" stroke-width="1.5"/>
<path d="M150.585 91.2743C150.585 91.2743 152.422 73.0135 152.232 67.6935C152.232 67.6935 155.371 69.4035 158.171 68.4535C158.171 68.4535 160.021 71.4935 161.351 71.3035C162.681 71.1135 162.111 64.8435 156.981 58.3835C151.851 51.9235 128.999 51.9652 122.28 91.2743" stroke="black" stroke-width="1.5"/>
<path d="M48.3405 267.481C46.6812 262.835 41.8205 268.971 41.8205 268.971C41.8205 268.971 47.6768 256.53 41.8205 253.709C38.9316 252.318 37.4114 253.955 36.612 255.97C39.6085 237.881 40.2551 202.99 28.1607 201.775C14.9497 200.448 19.4699 233.964 19.4699 233.964C19.4699 233.964 15.8196 224.341 11.174 228.655C6.52838 232.969 15.4877 261.175 15.4877 261.175C14.4922 258.189 9.18266 255.866 7.19158 261.175C5.20051 266.485 12.833 277.768 12.833 277.768L39.0488 282.082C39.0488 282.082 49.9997 272.126 48.3405 267.481Z" fill="black"/>
<path d="M46.3899 309.958H8.85115L0.550049 276.413H54.691L46.3899 309.958Z" fill="#DC911B"/>
<path d="M0.549683 276.413H54.6907" stroke="black" stroke-width="1.5"/>
<path d="M349.915 309.958H212.196L264.997 192.423H349.915V309.958Z" fill="black"/>
<rect x="155.229" y="293.168" width="89.8164" height="16.7906" fill="#EDEEEF"/>
<rect x="170.226" y="276.377" width="89.8165" height="16.7908" fill="#EDEEEF"/>
<rect x="185.223" y="259.586" width="89.8165" height="16.7908" fill="#EDEEEF"/>
<rect x="200.22" y="242.796" width="89.8164" height="16.7906" fill="#EDEEEF"/>
<rect x="215.218" y="226.005" width="89.8165" height="16.7907" fill="#EDEEEF"/>
<rect x="230.215" y="209.214" width="89.8163" height="16.7907" fill="#EDEEEF"/>
<rect x="245.212" y="192.423" width="89.8164" height="16.7907" fill="#EDEEEF"/>
<path d="M155.23 293.167H245.046V309.958H155.23" stroke="black" stroke-width="1.5"/>
<path d="M170.227 276.377H260.043V293.167H170.227" stroke="black" stroke-width="1.5"/>
<path d="M185.224 259.586H275.04V276.377H185.224" stroke="black" stroke-width="1.5"/>
<path d="M200.22 242.796H290.037V259.586H200.22" stroke="black" stroke-width="1.5"/>
<path d="M215.218 226.005H305.034V242.796H215.218" stroke="black" stroke-width="1.5"/>
<path d="M230.215 209.214H320.031V226.005" stroke="black" stroke-width="1.5"/>
<path d="M245.212 192.423H335.028V209.214H245.212" stroke="black" stroke-width="1.5"/>
</svg>
