<svg width="402" height="290" viewBox="0 0 402 267" fill="none" xmlns="http://www.w3.org/2000/svg">
<rect x="157.36" y="14.6562" width="234.172" height="145.31" fill="#EDEEEF"/>
<rect x="221.78" y="6.70459" width="105.332" height="18.4989" fill="#FF6498"/>
<path d="M274.446 14.2532C278.392 14.2532 281.592 11.0625 281.592 7.12661C281.592 3.19069 278.392 0 274.446 0C270.499 0 267.3 3.19069 267.3 7.12661C267.3 11.0625 270.499 14.2532 274.446 14.2532Z" fill="#FF6498"/>
<rect x="221.78" y="6.70459" width="105.332" height="18.4989" fill="#DC911B"/>
<path d="M274.446 14.2532C278.392 14.2532 281.592 11.0625 281.592 7.12661C281.592 3.19069 278.392 0 274.446 0C270.499 0 267.3 3.19069 267.3 7.12661C267.3 11.0625 270.499 14.2532 274.446 14.2532Z" fill="#DC911B"/>
<path d="M327.112 6.70447V25.2034H221.78" stroke="black" stroke-width="1.5" stroke-linecap="round" stroke-linejoin="round"/>
<path d="M391.532 14.6564V159.966H157.36" stroke="black" stroke-width="1.5" stroke-linecap="round" stroke-linejoin="round"/>
<path d="M211.995 159.966L173.693 256.665" stroke="black" stroke-width="1.5" stroke-linecap="round" stroke-linejoin="round"/>
<path d="M336.897 159.966L375.198 256.665" stroke="black" stroke-width="1.5" stroke-linecap="round" stroke-linejoin="round"/>
<path d="M185.695 223.122H363.196" stroke="black" stroke-width="1.5" stroke-linecap="round" stroke-linejoin="round"/>
<path d="M49.1899 62.458L68.0982 58.824C59.3581 64.5987 59.0974 64.8233 49.5478 73.0516L49.1899 73.36C49.1899 68.146 49.1897 65.776 49.1899 62.458Z" fill="black"/>
<path d="M98.9082 191.386L49.1899 168.792C49.1899 168.792 50.7118 156.323 49.1899 138.298L67.4628 135.296L67.3082 147.62L126.558 180.168L98.9082 191.386Z" fill="black"/>
<path d="M49.1899 62.458L68.0982 58.824C59.3581 64.5987 59.0974 64.8233 49.5478 73.0516L49.1899 73.36C49.1899 68.146 49.1897 65.776 49.1899 62.458Z" stroke="black"/>
<path d="M98.9082 191.386L49.1899 168.792C49.1899 168.792 50.7118 156.323 49.1899 138.298L67.4628 135.296L67.3082 147.62L126.558 180.168L98.9082 191.386Z" stroke="black"/>
<path d="M144.172 133.57C144.172 133.57 205.425 153.883 228.531 223.764L238.675 228.272L205.988 238.416L153.014 181.286L115.579 156.367" fill="#E2E2E2"/>
<path d="M166.716 254.177C183.016 142.798 126.527 138.374 126.527 138.374L100.417 181.287L126.278 180.177L133.365 266.342L171.704 262.819L166.716 254.177Z" fill="#EDEEEF"/>
<path d="M166.716 254.177C183.016 142.798 126.527 138.374 126.527 138.374" stroke="black" stroke-width="1.5" stroke-linecap="round" stroke-linejoin="round"/>
<path d="M113.468 123.22L51.8145 138.374C51.8145 138.374 47.7368 185.67 113.468 181.287L149.069 131.448L113.468 123.22Z" fill="#EDEEEF"/>
<path d="M113.468 181.286L149.069 131.448" stroke="black" stroke-width="1.5" stroke-linecap="round" stroke-linejoin="round"/>
<path d="M51.8145 138.374C51.8145 138.374 47.7368 185.67 113.468 181.287" stroke="black" stroke-width="1.5" stroke-linecap="round" stroke-linejoin="round"/>
<path d="M70.3789 29.9024V36.8465C70.3789 42.2159 74.0446 46.8917 79.2588 48.1732L90.3092 50.8892V23.7391L81.1209 21.4808C78.5335 20.8449 75.7974 21.4336 73.7005 23.0775C71.6037 24.7214 70.3789 27.2379 70.3789 29.9023V29.9024Z" fill="#EDEEEF"/>
<path d="M70.3789 36.8466C70.3789 42.216 74.0446 46.8917 79.2588 48.1733L90.3092 50.8893" stroke="black" stroke-width="1.5" stroke-linecap="round" stroke-linejoin="round"/>
<path d="M81.6372 35.4687C81.9315 35.4687 82.1701 35.2302 82.1701 34.9358C82.1701 34.6415 81.9315 34.403 81.6372 34.403C81.3429 34.403 81.1043 34.6415 81.1043 34.9358C81.1043 35.2302 81.3429 35.4687 81.6372 35.4687Z" fill="black"/>
<path d="M73.4524 35.4687C73.7467 35.4687 73.9853 35.2302 73.9853 34.9358C73.9853 34.6415 73.7467 34.403 73.4524 34.403C73.1581 34.403 72.9196 34.6415 72.9196 34.9358C72.9196 35.2302 73.1581 35.4687 73.4524 35.4687Z" fill="black"/>
<path d="M75.8539 38.1148V29.9026H71.7397" stroke="black" stroke-width="1.5" stroke-linecap="round" stroke-linejoin="round"/>
<path d="M82.6412 29.9025H78.5271" stroke="black" stroke-width="1.5" stroke-linecap="round" stroke-linejoin="round"/>
<path d="M88.9965 34.1102V36.9621C90.5349 36.9621 91.7819 35.715 91.7819 34.1766C91.7819 34.0912 91.7781 34.0067 91.7706 33.9231C91.6145 32.1934 88.9965 32.3735 88.9965 34.1102Z" fill="#EDEEEF"/>
<path d="M88.9965 36.962C90.5349 36.962 91.7819 35.7149 91.7819 34.1765" stroke="black" stroke-width="1.5" stroke-linecap="round" stroke-linejoin="round"/>
<path d="M78.1031 39.0742C78.449 39.4201 78.9181 39.6144 79.4073 39.6144C79.8965 39.6144 80.3656 39.4201 80.7115 39.0742" stroke="#DC911B" stroke-width="1.5" stroke-linecap="round" stroke-linejoin="round"/>
<path d="M75.8538 38.1212L77.6532 38.5635" stroke="black" stroke-width="1.5" stroke-linecap="round" stroke-linejoin="round"/>
<path d="M69.804 26.9895L85.3339 27.7409C85.3339 27.7409 86.2224 32.8304 88.9965 33.3768" stroke="black" stroke-width="1.5" stroke-linecap="round" stroke-linejoin="round"/>
<path d="M69.8041 40.3902L62.7906 38.1147C62.7906 38.1147 63.1663 11.5848 85.7097 15.5925C85.7097 15.5925 99.9872 16.1664 101.49 31.5711C102.993 46.9758 102.759 47.9621 102.759 47.9621L90.3092 45.0242" stroke="black" stroke-width="1.5" stroke-linecap="round" stroke-linejoin="round"/>
<path d="M113.468 79.6992V123.22L51.8144 138.374V89.9031C51.8144 72.7162 63.5478 57.7498 80.2379 53.6477H80.238C88.242 51.6804 96.7061 53.5017 103.193 58.5869C109.679 63.6722 113.468 71.457 113.468 79.6992V79.6992Z" fill="#DC911B"/>
<path d="M69.804 57.9692C69.804 57.9692 29.0313 82.311 14.3789 118.942C-0.273634 155.573 73.4987 133.044 73.4987 133.044C73.4987 133.044 85.497 133.828 90.0057 128.184L95.4747 127.643L94.8275 125.053L49.2397 115.034L70.3788 95.6166" stroke="black" stroke-width="1.5" stroke-linecap="round" stroke-linejoin="round"/>
<path d="M49.2396 115.034L65.9593 118.709C53.7617 114.198 66.764 98.9377 66.7673 98.934L49.2396 115.034Z" fill="black"/>
<path d="M75.1545 120.73C74.643 120.361 73.2344 120.026 70.6669 119.743L75.1545 120.73Z" fill="black"/>
<path d="M108.179 63.6938L126.527 91.4886C126.527 91.4886 132.65 58.425 141.167 55.4192C149.683 52.4134 153.691 50.8893 153.691 50.8893L154.644 53.8973L150.685 57.9692C150.685 57.9692 154.528 66.4404 148.098 68.4443C148.098 68.4443 167.131 122.505 128.349 126.66" stroke="black" stroke-width="1.5" stroke-linecap="round" stroke-linejoin="round"/>
<path d="M129.442 197.706C129.442 230.015 103.251 256.206 70.942 256.206C38.6333 256.206 12.442 230.015 12.442 197.706C12.442 165.397 38.6333 139.206 70.942 139.206C103.251 139.206 129.442 165.397 129.442 197.706Z" fill="#EDEEEF" stroke="#EDEEEF" stroke-width="1.5"/>
<circle cx="66.676" cy="198.18" r="65.926" stroke="black" stroke-width="1.5"/>
<ellipse cx="62.884" cy="198.18" rx="10.428" ry="10.428" fill="black"/>
</svg>
